<svg xmlns="http://www.w3.org/2000/svg" viewBox="-176 81 246.5 140" enable-background="new -176 81 246.5 140"><style type="text/css">.st0{display:none;fill:#FFFFFF;} .st1{display:none;fill:none;} .st2{fill:#FFFFFF;}</style><g id="_x34_extra"><path class="st0" d="M-106.1 81c-38.6 0-69.9 31.4-69.9 70s31.3 70 69.9 70 69.9-31.3 69.9-70c.1-38.6-31.2-70-69.9-70zm0 .3c-38.4 0-69.6 31.2-69.6 69.7s31.2 69.7 69.7 69.7 69.7-31.2 69.7-69.7c-.1-38.5-31.3-69.7-69.8-69.7z"/><path class="st1" d="M-82.3 101.3h-16.4c-2.2 0-5 1.4-6.3 3.2l-39 52.2c-1.3 1.7-2.4 5-2.4 7.1v15h36.4c2.1.1 2.2 1.9 2.2 1.9v16.2h25.5v-18h14.2v-21h-14.2v-56.6zm-14.5 58.8c-2.6 7.3-8.1 14.3-15.3 17.5 5.4-3.9 7.8-8.7 8.7-15.1l-3.6-.6c-4.7-.8-8.3-4.8-8.4-9.6-.1-5.5 4.3-10.1 9.8-10.2 9.9-.3 11.4 10.7 8.8 18z"/><path class="st2" d="M-57.4 108.7c-3.6 0-6.5 2.3-7.7 5.9h15.4c-.9-3.6-3.9-5.9-7.7-5.9zm-48.2 33.3c-5.5.1-9.9 4.7-9.8 10.2.1 4.8 3.7 8.8 8.4 9.6l3.6.6c-.9 6.4-3.3 11.2-8.7 15.1 7.2-3.2 12.8-10.1 15.3-17.5 2.6-7.2 1.1-18.2-8.8-18z"/><path class="st1" d="M-57.4 108.7c-3.6 0-6.5 2.3-7.7 5.9h15.4c-.9-3.6-3.9-5.9-7.7-5.9zm0 18.6c2.7 0 5.2-1.1 6.6-3.6h4.1l1.5-2.5h-20c1.1 3.8 4.1 6.1 7.8 6.1zm81.7-3.1c0 1.7 2.1 3 5.3 3 4.8 0 8.6-1.6 8.6-5.6v-2.9c-1.7 1.1-4.3 1.6-7.5 2-4 .4-6.4 1.2-6.4 3.5z"/><path class="st2" d="M-8.7 120.6v-11h5.6v-7.1h-5.6v-7.9h-8v7.9h-12.7l-5.7 9.5-5.8-9.5h-11.3c6.8 2.1 11.6 8.7 10.7 18.6H-65c1 3.8 4 6.2 7.8 6.2 2.7 0 5.2-1.1 6.6-3.6h8.5c-.2.5-.3 1.1-.5 1.6 0 .1-.1.2-.1.4-.2.5-.5 1-.7 1.5-.3.5-.6.9-.9 1.3-.1.1-.1.2-.2.3-.7.9-1.4 1.6-2.3 2.3l-.2.2c-.9.7-1.9 1.3-2.9 1.7-.1 0-.1.1-.2.1-.5.2-1.1.4-1.7.6-1.6.5-3.3.7-5.2.7-8.7 0-15.9-7.2-15.9-16.2s7.2-16.4 15.9-16.4h1C-69 89-86.6 81-106.1 81c-38.6 0-69.9 31.4-69.9 70s31.3 70 69.9 70 69.9-31.3 69.9-70c0-7.4-1.2-14.5-3.3-21.2l4.2-6.8 6.5 10.6h9l-10.9-16.1 10.2-15v7.1h3.7v10.9c0 8.5 4.8 14 13.9 13v-7.2c-3.9.2-5.8-1.4-5.8-5.7zm-59.4 58.2h-14.2v18h-25.5v-16.2s0-1.8-2.2-1.9h-36.4v-15c0-2.2 1.1-5.4 2.4-7.1l39-52.3c1.3-1.7 4.1-3.2 6.3-3.2h16.4v56.5h14.2v21.2zm84.7-76.9c-3.7-.6-7.5.5-10 3.7v-3.1H-1v31.1h8v-15.3c0-2.5.3-5 2-6.8 1.8-1.9 4.5-2.3 7.7-1.9l-.1-7.7zm29 26.6v-16.1c0-2.5-1-10.6-13.6-10.6-8.1 0-13.8 4.4-14.6 10.3h8c.7-2.7 4-3.9 6.8-3.9 3.6 0 5.7 1.3 5.7 3 0 2.5-3.7 3.1-8.9 3.6-6.9.6-12.7 2.4-12.7 9.4 0 6.8 6 10.1 12.6 10.1 4.3 0 7.5-1.3 9.5-3.5.2 1.1.4 2.1.8 2.9h7.3c-.4-1.3-.9-3.7-.9-5.2zm-7.4-7c0 4-3.9 5.6-8.6 5.6-3.2 0-5.3-1.2-5.3-3 0-2.3 2.4-3.1 6.3-3.6 3.3-.4 5.9-.9 7.5-2v3h.1z"/></g></svg>