<?xml version="1.0" encoding="UTF-8" standalone="no"?>
<svg width="159px" height="50px" viewBox="0 0 159 50" version="1.1" xmlns="http://www.w3.org/2000/svg" xmlns:xlink="http://www.w3.org/1999/xlink">
    <!-- Generator: sketchtool 41 (35326) - http://www.bohemiancoding.com/sketch -->
    <title>EA76697E-FABE-4FBA-B091-D880AE351513</title>
    <desc>Created with sketchtool.</desc>
    <defs></defs>
    <g id="main" stroke="none" stroke-width="1" fill="none" fill-rule="evenodd">
        <g id="VICE" transform="translate(-78.000000, -204.000000)" fill="#1A1918">
            <g id="vice_logo_black" transform="translate(78.000000, 204.000000)">
                <path d="M104.269531,12.478125 C105.586719,13.9789063 108.470312,13.9140625 110.185156,15.0148438 C107.870312,15.609375 104.95625,15.6070313 102.858594,16.4210938 C103.353125,15.1289063 103.796094,13.7890625 104.269531,12.478125" id="Fill-1"></path>
                <path d="M87.9273437,17.6890625 C87.234375,20.85 85.7835937,24.4671875 84.9703125,27.9726563 C89.4476563,28.0359375 94.1703125,27.1234375 98.7742187,26.8460938 C99.3976562,26.0132813 99.703125,24.8640625 100.04375,23.7476563 C100.966406,25.0539063 101.616406,27.4992188 100.748437,29.38125 C93.75625,29.2835938 88.7296875,35.009375 81.8710938,35.015625 C78.7992187,35.0195313 76.1882813,33.2523438 77.64375,29.8039063 C79.6976563,24.9375 84.790625,21.5390625 87.9273437,17.6890625" id="Fill-2"></path>
                <path d="M109.342187,6.8421875 C107.553906,7.05859375 106.284375,9.01328125 105.116406,9.659375 C105.200781,9.6515625 105.28125,9.6375 105.253906,9.51796875 C105.46875,8.55625 105.876562,7.790625 105.959375,6.7015625 C96.584375,3.4 87.4601562,8.22734375 80.7445312,11.9125 C75.3742187,14.859375 70.5820312,18.3203125 67.2195312,21.7734375 C68.4351563,19.7023437 69.725,17.653125 71.1648438,15.7171875 C72.6234375,13.7515625 74.2492187,11.9742187 75.5335937,10.2234375 C72.725,9.48828125 69.909375,8.71171875 67.0773438,8.109375 C63.0515625,7.253125 57.4523437,5.8328125 54.1179687,7.68671875 C53.1523437,8.22265625 52.3632812,9.54140625 51.4414062,9.659375 C50.678125,9.75859375 49.421875,9.20078125 48.4820312,9.096875 C45.0390625,8.7140625 41.8726562,9.03359375 38.7617187,9.659375 C35.8484375,10.2429687 29.6875,11.2796875 28.8984375,14.025 C28.3929688,15.7882812 29.5195312,17.4976562 29.321875,19.240625 C29.1289062,20.95625 27.4820312,23.225 26.6453125,24.59375 C25.6210938,26.2703125 24.5796875,27.75625 22.840625,28.5359375 C21.7859375,23.2882812 22.9335937,18.6203125 23.828125,14.16875 C24.3796875,11.4257812 25.4921875,8.61796875 24.5335937,5.85546875 C21.8476562,5.4828125 19.5851562,7.60859375 16.925,8.671875 C11.928125,10.671875 6.3625,12.49375 5.65546875,18.2523437 C5.25703125,21.4953125 6.4765625,23.5578125 7.34609375,25.8609375 C9.21015625,30.8085937 11.5148437,34.996875 14.25,38.821875 C13.5046875,40.1914062 11.7484375,40.5484375 11.5710937,42.48125 C12.3664062,43.6070312 14.021875,43.7546875 15.6578125,43.7507812 C20.3851562,43.7398437 24.2609375,41.3617187 27.771875,39.3828125 C35.4171875,35.0828125 40.5539062,28.4601562 45.946875,22.196875 C46.89375,21.0953125 47.6734375,19.76875 48.9070312,19.0984375 C50.11875,24.6632812 47.7617187,27.6382812 46.0859375,32.1984375 C45.440625,33.9554687 43.403125,39.453125 44.3960937,42.0570312 C45.484375,44.9226562 54.7578125,45.0476563 57.2164062,43.1890625 C58.4554688,42.253125 58.9484375,40.1367187 59.6140625,38.821875 C60.4625,37.1296875 61.196875,35.6679687 61.8664063,34.1726562 C61.9039062,40.3445312 66.4882812,42.15625 71.4453125,43.4703125 C81.98125,46.2554687 92.6046875,41.2796875 98.3523438,37.8375 C97.6335937,42.409375 99.409375,42.8679687 103.002344,43.6132812 C112.292188,45.5304687 121.648438,43.3171875 129.205469,41.496875 C136.132812,39.8289062 141.703906,38.6507812 142.730469,31.7757812 C141.621094,30.8164062 138.850781,30.9359375 136.954687,31.2140625 C131.367969,32.03125 125.957812,34.8570312 118.5,34.3125 C117.139063,34.2132812 114.2,33.7382812 113.988281,32.9054687 C113.660937,31.6046875 115.989063,30.6945312 117.938281,30.3695312 C123.528125,29.4226562 131.608594,30.378125 136.107813,28.6757812 C138.269531,27.8601562 140.875781,25.5070312 140.614062,22.9007812 C140.44375,21.1414062 138.145312,20.2203125 135.965625,20.0859375 C129.801562,19.7007812 125.395313,23.2984375 118.925,22.0570312 C119.733594,21.034375 119.878906,19.3515625 120.894531,18.5351562 C125.625781,18.4359375 130.223437,19.3765625 134.700781,19.0984375 C140.926562,18.7085937 144.436719,16.0875 147.380469,12.6179687 C147.696094,12.2445312 148.485938,11.8421875 148.225781,11.2109375 C137.4125,9.565625 122.672656,5.20859375 109.342187,6.8421875 M158.364844,7.40625 C158.536719,8.0859375 157.778125,8.7390625 157.382812,9.23828125 C154.067187,13.4039062 150.390625,18.33125 145.972656,21.49375 C146.291406,23.1515625 146.121875,25.35 145.546094,26.5632812 C146.703125,28.0421875 147.930469,29.4421875 148.646094,31.3554687 C147.705469,36.3523437 145.51875,40.2320312 142.027344,42.7664062 C138.616406,45.2375 134.007812,46.2109375 128.78125,47.415625 C118.675,49.7445312 102.045312,52.0421875 94.5476562,46.0046875 C86.4296875,50.7671875 70.021875,51.3960937 62.4289062,45.7226562 C57.0304687,52.5539062 35.7375,51.9554687 38.9046875,38.3984375 C34.9570312,41.3875 29.1179687,45.5101562 23.546875,47.8375 C17.0875,50.5328125 4.853125,50.2304688 6.0765625,41.075 C6.2234375,39.9851562 6.684375,39.36875 7.20390625,38.3984375 C5.31484375,35.1 4.1203125,32.8125 2.978125,29.9445312 C1.8828125,27.1953125 0.21171875,24.0671875 0.01875,20.2257812 C-0.38984375,12.0578125 5.97578125,6.878125 12.2773437,4.446875 C15.4953125,3.203125 18.1085937,1.4078125 21.29375,0.503125 C26.0539062,-0.853125 30.1359375,1.765625 30.4492187,6.13828125 C35.984375,4.4953125 42.7242187,2.6828125 50.0328125,3.74296875 C55.8523437,-0.78203125 67.2171875,2.0140625 74.6875,4.1640625 C76.3757812,4.65078125 78.6492187,5.909375 79.8992187,5.85546875 C80.9585937,5.8125 82.871875,4.37578125 83.9820312,3.88359375 C89.2234375,1.56015625 96.075,-0.91328125 103.565625,0.3625 C104.983594,0.60234375 106.282031,1.353125 107.790625,1.4890625 C108.816406,1.58125 110.06875,1.26015625 111.173437,1.20859375 C128.677344,0.35390625 143.251563,5.05234375 158.364844,7.40625" id="Fill-4"></path>
            </g>
        </g>
    </g>
</svg>
